# Blender v3.3.1 OBJ File: ''
# www.blender.org
mtllib player.mtl
o 立方体
v 1.000000 -1.000000 -1.000000
v 1.000000 1.000000 -1.000000
v 1.000000 -1.000000 1.000000
v 1.000000 1.000000 1.000000
v -1.000000 -1.000000 -1.000000
v -1.000000 1.000000 -1.000000
v -1.000000 -1.000000 1.000000
v -1.000000 1.000000 1.000000
vt 0.668568 0.001901
vt 0.998099 0.331432
vt 0.998099 0.001901
vt 0.001901 0.001901
vt 0.331432 0.331432
vt 0.331432 0.001901
vt 0.001901 0.335234
vt 0.331432 0.664766
vt 0.331432 0.335234
vt 0.335234 0.001901
vt 0.664766 0.331432
vt 0.664766 0.001901
vt 0.335234 0.335234
vt 0.664766 0.664766
vt 0.664766 0.335234
vt 0.001901 0.668568
vt 0.331432 0.998099
vt 0.331432 0.668568
vt 0.668568 0.331432
vt 0.001901 0.331432
vt 0.001901 0.664766
vt 0.335234 0.331432
vt 0.335234 0.664766
vt 0.001901 0.998099
vn 1.0000 0.0000 0.0000
vn 0.0000 0.0000 1.0000
vn -1.0000 0.0000 0.0000
vn 0.0000 0.0000 -1.0000
vn 0.0000 -1.0000 0.0000
vn 0.0000 1.0000 0.0000
usemtl マテリアル
s off
f 2/1/1 3/2/1 1/3/1
f 4/4/2 7/5/2 3/6/2
f 8/7/3 5/8/3 7/9/3
f 6/10/4 1/11/4 5/12/4
f 7/13/5 1/14/5 3/15/5
f 4/16/6 6/17/6 8/18/6
f 2/1/1 4/19/1 3/2/1
f 4/4/2 8/20/2 7/5/2
f 8/7/3 6/21/3 5/8/3
f 6/10/4 2/22/4 1/11/4
f 7/13/5 5/23/5 1/14/5
f 4/16/6 2/24/6 6/17/6
