# Blender 3.4.1
# www.blender.org
mtllib player.mtl
o Cube
v -0.174584 0.174584 -0.344696
v -0.174584 -0.174584 -0.344696
v 0.174584 0.174584 -0.344696
v 0.174584 -0.174584 -0.344696
v -0.872919 0.000000 0.004471
v -0.872919 0.000000 -0.344696
v 0.872919 0.000000 0.004471
v 0.872919 0.000000 -0.344696
v 0.174584 -0.174584 -0.442362
v 0.174584 0.174584 -0.442362
v -0.174584 0.174584 -0.442362
v -0.174584 -0.174584 -0.442362
v -0.174584 -0.174584 0.391870
v 0.174584 -0.174584 0.391870
v -0.174584 0.174584 0.391870
v 0.174584 0.174584 0.391870
v -0.094463 -0.094463 0.611421
v 0.094463 -0.094463 0.611421
v -0.094463 0.094463 0.611421
v 0.094463 0.094463 0.611421
v 0.000000 0.000000 1.051975
v 0.174584 -0.174584 -0.693864
v 0.174584 0.174584 -0.693864
v -0.174584 0.174584 -0.693864
v -0.174584 -0.174584 -0.693864
v -0.174584 -0.174584 -0.786345
v -0.174584 0.174584 -0.786345
v 0.174584 0.174584 -0.786345
v 0.174584 -0.174584 -0.786345
v -0.523752 0.000000 -0.786345
v -0.523752 0.000000 -0.693864
v 0.523752 0.000000 -0.786345
v 0.523752 0.000000 -0.693864
v -0.094463 0.193251 0.611421
v 0.094463 0.193251 0.611421
v -0.236329 -0.236329 -0.973863
v -0.100091 -0.100091 -0.786345
v -0.100091 0.100091 -0.786345
v -0.236329 0.236329 -0.973863
v 0.236329 0.236329 -0.973863
v 0.100091 0.100091 -0.786345
v 0.100091 -0.100091 -0.786345
v 0.236329 -0.236329 -0.973863
v 0.174584 -0.087292 -0.344696
v 0.174584 -0.087292 0.198171
v -0.174584 -0.087292 0.198171
v -0.174584 -0.087292 -0.344696
vn 1.0000 -0.0000 -0.0000
vn -1.0000 -0.0000 -0.0000
vn 0.2425 0.9701 -0.0000
vn -0.0000 1.0000 -0.0000
vn -0.0000 -1.0000 -0.0000
vn 0.9394 -0.0000 0.3428
vn -0.2850 -0.5700 0.7706
vn -0.2425 0.9701 -0.0000
vn -0.0000 -0.9394 0.3428
vn -0.9394 -0.0000 0.3428
vn -0.9778 -0.0000 0.2097
vn 0.9778 -0.0000 0.2097
vn -0.0000 -0.9778 0.2097
vn 0.1240 -0.9923 -0.0000
vn -0.0000 -0.0000 -1.0000
vn 0.4472 0.8944 -0.0000
vn -0.4472 0.8944 -0.0000
vn 0.4472 -0.8944 -0.0000
vn 0.9498 -0.0000 0.3128
vn -0.5845 -0.0000 0.8114
vn -0.4472 -0.8944 -0.0000
vn 0.5845 -0.0000 0.8114
vn -0.0000 -0.9158 -0.4017
vn 0.9778 -0.0000 -0.2097
vn -0.9778 -0.0000 -0.2097
vn 0.9394 -0.0000 -0.3428
vn -0.9394 -0.0000 -0.3428
vn -0.0000 -0.9964 0.0847
vn -0.9498 -0.0000 0.3128
vn -0.0000 0.9498 0.3128
vn -0.0000 -0.8090 -0.5878
vn -0.0000 0.8090 -0.5878
vn -0.8090 -0.0000 -0.5878
vn 0.8090 -0.0000 -0.5878
vn -0.0000 -0.9498 0.3128
vn -0.1240 -0.9923 -0.0000
vn 0.2850 -0.5700 0.7706
vt 0.599063 0.752371
vt 0.205553 0.316093
vt 0.693585 0.752371
vt 0.803811 0.375831
vt 0.584516 0.220820
vt 0.120551 0.897070
vt 0.256471 0.235549
vt 0.026029 0.897070
vt 0.675786 0.193439
vt 0.803811 0.446820
vt 0.881051 0.387145
vt 0.024180 0.426899
vt 0.273550 0.526194
vt 0.104700 0.477802
vt 0.368838 0.526162
vt 0.881051 0.435505
vt 0.278768 0.024180
vt 0.077041 0.716757
vt 0.359288 0.075082
vt 0.172329 0.716788
vt 0.024180 0.874774
vt 0.668127 0.167910
vt 0.118702 0.874774
vt 0.278993 0.249787
vt 0.228076 0.330331
vt 0.600911 0.730074
vt 0.695433 0.730074
vt 0.576857 0.195291
vt 0.642275 0.413352
vt 0.787999 0.207843
vt 0.787999 0.614807
vt 0.733545 0.385971
vt 0.724303 0.927467
vt 0.881051 0.191240
vt 0.035697 0.208715
vt 0.550702 0.806906
vt 0.395909 0.765148
vt 0.458577 0.782557
vt 0.086615 0.128171
vt 0.881051 0.631411
vt 0.680418 0.464404
vt 0.800254 0.142574
vt 0.800254 0.680077
vt 0.729803 0.449588
vt 0.724303 0.886401
vt 0.850603 0.133590
vt 0.395909 0.806214
vt 0.850603 0.689060
vt 0.810802 0.024180
vt 0.810802 0.798470
vt 0.739639 0.572089
vt 0.550702 0.620449
vt 0.705737 0.800731
vt 0.377343 0.891884
vt 0.648405 0.102170
vt 0.336991 0.286452
vt 0.286073 0.366996
vt 0.557135 0.129550
vt 0.309364 0.381720
vt 0.599063 0.910203
vt 0.549882 0.105377
vt 0.307400 0.380478
vt 0.599063 0.815681
vt 0.270669 0.878150
vt 0.358317 0.299934
vt 0.360281 0.301176
vt 0.270669 0.783628
vt 0.641152 0.077996
vt 0.257464 0.461642
vt 0.458577 0.132638
vt 0.642842 0.620449
vt 0.236137 0.448160
vt 0.465829 0.156812
vt 0.410217 0.220011
vt 0.732387 0.050496
vt 0.076771 0.765148
vt 0.739639 0.074669
vt 0.388890 0.206529
vt 0.699465 0.896311
vt 0.544870 0.743405
vt 0.371071 0.796304
vt 0.495023 0.730231
vt 0.651104 0.928683
vt 0.168911 0.765148
vt 0.951850 0.024180
vt 0.519051 0.061245
vt 0.220976 0.802328
vt 0.929412 0.068547
vt 0.839271 0.938640
vt 0.929412 0.122738
vt 0.222309 0.802328
vt 0.651104 0.800731
vt 0.341291 0.421838
vt 0.787999 0.975820
vt 0.951850 0.152132
vt 0.322710 0.893100
vt 0.410217 0.312808
vt 0.787999 0.846830
vt 0.951850 0.200492
vt 0.222309 0.856958
vt 0.839271 0.884010
vt 0.929412 0.229886
vt 0.220976 0.856958
vt 0.929412 0.284077
vt 0.322710 0.765148
vt 0.168911 0.894137
vt 0.951850 0.328444
vt 0.642600 0.024180
vt 0.257944 0.236481
vt 0.827075 0.450971
vt 0.172329 0.526210
vt 0.024180 0.526162
vt 0.815421 0.574781
vt 0.220689 0.716788
vt 0.815421 0.247869
vt 0.207026 0.317024
vt 0.827075 0.371680
vt 0.368838 0.716740
s 0
usemtl Material
f 4/8/1 10/23/1 3/6/1
f 46/115/2 2/4/2 13/30/2
f 7/17/3 3/7/3 16/39/3
f 15/35/4 3/7/4 1/2/4
f 2/5/5 9/22/5 4/9/5
f 3/7/4 11/25/4 1/2/4
f 1/1/2 12/27/2 2/3/2
f 10/24/4 24/57/4 11/25/4
f 16/40/6 18/43/6 14/31/6
f 15/34/7 5/11/7 46/115/7
f 13/29/5 4/9/5 14/32/5
f 5/12/8 1/2/8 6/14/8
f 14/32/9 17/41/9 13/29/9
f 13/30/10 19/46/10 15/34/10
f 19/46/11 17/42/11 21/49/11
f 18/43/12 20/48/12 21/50/12
f 17/41/13 18/44/13 21/51/13
f 4/10/1 45/113/1 14/31/1
f 44/111/14 7/18/14 45/112/14
f 27/62/15 26/59/15 30/69/15
f 33/78/16 28/65/16 23/56/16
f 12/28/5 22/55/5 9/22/5
f 11/25/17 24/57/17 31/72/17
f 22/55/18 32/75/18 33/77/18
f 29/67/19 40/96/19 28/64/19
f 31/72/17 27/62/17 30/69/17
f 29/66/15 28/65/15 32/74/15
f 23/56/4 27/62/4 24/57/4
f 12/27/20 11/26/20 31/71/20
f 31/73/21 26/61/21 25/58/21
f 25/58/21 12/28/21 31/73/21
f 25/58/5 29/68/5 22/55/5
f 9/21/22 33/76/22 10/23/22
f 22/55/18 33/77/18 9/22/18
f 10/24/16 33/78/16 23/56/16
f 21/52/23 34/80/23 35/82/23
f 19/45/24 34/79/24 21/53/24
f 21/54/25 35/81/25 20/47/25
f 19/45/26 15/33/26 34/79/26
f 16/37/27 20/47/27 35/81/27
f 35/82/28 15/36/28 16/38/28
f 26/60/29 39/92/29 36/83/29
f 28/65/30 39/93/30 27/62/30
f 37/87/15 41/100/15 42/103/15
f 39/94/31 41/101/31 38/89/31
f 43/106/32 37/87/32 42/103/32
f 41/102/33 43/107/33 42/104/33
f 37/88/34 39/95/34 38/90/34
f 26/61/35 43/108/35 29/68/35
f 5/13/36 47/118/36 46/114/36
f 16/40/37 45/113/37 7/16/37
f 14/31/1 45/113/1 16/40/1
f 46/115/2 13/30/2 15/34/2
f 3/7/15 8/19/15 44/109/15
f 6/14/15 1/2/15 47/116/15
f 4/8/1 9/21/1 10/23/1
f 46/115/2 47/117/2 2/4/2
f 7/17/3 8/19/3 3/7/3
f 15/35/4 16/39/4 3/7/4
f 2/5/5 12/28/5 9/22/5
f 3/7/4 10/24/4 11/25/4
f 1/1/2 11/26/2 12/27/2
f 10/24/4 23/56/4 24/57/4
f 16/40/6 20/48/6 18/43/6
f 13/29/5 2/5/5 4/9/5
f 5/12/8 15/35/8 1/2/8
f 14/32/9 18/44/9 17/41/9
f 13/30/10 17/42/10 19/46/10
f 4/10/1 44/110/1 45/113/1
f 44/111/14 8/20/14 7/18/14
f 33/78/16 32/74/16 28/65/16
f 12/28/5 25/58/5 22/55/5
f 22/55/18 29/68/18 32/75/18
f 29/67/19 43/105/19 40/96/19
f 31/72/17 24/57/17 27/62/17
f 23/56/4 28/65/4 27/62/4
f 31/73/21 30/70/21 26/61/21
f 25/58/5 26/61/5 29/68/5
f 35/82/28 34/80/28 15/36/28
f 26/60/29 27/63/29 39/92/29
f 28/65/30 40/97/30 39/93/30
f 37/87/15 38/91/15 41/100/15
f 39/94/31 40/98/31 41/101/31
f 43/106/32 36/84/32 37/87/32
f 41/102/33 40/99/33 43/107/33
f 37/88/34 36/85/34 39/95/34
f 26/61/35 36/86/35 43/108/35
f 5/13/36 6/15/36 47/118/36
