# Blender 3.4.1
# www.blender.org
mtllib ring.mtl
o トーラス
v -1.350000 0.000000 0.000000
v -1.200000 -0.000000 -0.086603
v -1.200000 0.000000 0.086603
v -0.675000 1.169134 -0.000000
v -0.600000 1.039231 -0.086603
v -0.600000 1.039231 0.086602
v 0.675000 1.169134 -0.000000
v 0.600000 1.039231 -0.086603
v 0.600000 1.039231 0.086602
v 1.350000 0.000000 -0.000000
v 1.200000 0.000000 -0.086603
v 1.200000 0.000000 0.086603
v 0.675000 -1.169134 0.000000
v 0.600000 -1.039231 -0.086602
v 0.600000 -1.039231 0.086603
v -0.675000 -1.169134 0.000000
v -0.600000 -1.039231 -0.086602
v -0.600000 -1.039231 0.086603
vn -0.4804 0.2773 -0.8321
vn 0.8660 -0.5000 -0.0000
vn -0.4804 0.2774 0.8321
vn -0.0000 0.5547 -0.8321
vn -0.0000 -1.0000 -0.0000
vn -0.0000 0.5547 0.8321
vn 0.4804 0.2773 -0.8321
vn -0.8660 -0.5000 -0.0000
vn 0.4804 0.2774 0.8321
vn 0.4804 -0.2774 -0.8321
vn -0.8660 0.5000 -0.0000
vn 0.4804 -0.2774 0.8321
vn -0.0000 -0.5547 -0.8320
vn -0.0000 1.0000 -0.0000
vn -0.0000 -0.5547 0.8321
vn -0.4804 -0.2774 -0.8321
vn 0.8660 0.5000 -0.0000
vn -0.4804 -0.2774 0.8321
vn -0.0000 0.5547 0.8320
vn 0.4804 0.2774 -0.8321
vn -0.0000 -0.5547 -0.8321
vt 0.500000 0.666667
vt 0.500000 1.000000
vt 0.500000 0.000000
vt 0.500000 0.333333
vt 0.666667 0.666667
vt 0.666667 1.000000
vt 0.666667 0.000000
vt 0.666667 0.333333
vt 0.833333 0.666667
vt 0.833333 0.000000
vt 0.833333 1.000000
vt 0.833333 0.333333
vt -0.000000 0.666667
vt 1.000000 0.666667
vt -0.000000 0.000000
vt 1.000000 1.000000
vt 1.000000 0.000000
vt -0.000000 1.000000
vt 1.000000 0.333333
vt -0.000000 0.333333
vt 0.166667 0.666667
vt 0.166667 0.000000
vt 0.166667 1.000000
vt 0.166667 0.333333
vt 0.333333 0.666667
vt 0.333333 0.000000
vt 0.333333 1.000000
vt 0.333333 0.333333
s 0
usemtl マテリアル
f 4/5/1 2/2/1 1/1/1
f 5/7/2 3/4/2 2/3/2
f 6/8/3 1/1/3 3/4/3
f 4/5/4 8/11/4 5/6/4
f 8/10/5 6/8/5 5/7/5
f 9/12/6 4/5/6 6/8/6
f 10/14/7 8/11/7 7/9/7
f 11/17/8 9/12/8 8/10/8
f 12/19/9 7/9/9 9/12/9
f 13/21/10 11/18/10 10/13/10
f 14/22/11 12/20/11 11/15/11
f 12/20/12 13/21/12 10/13/12
f 16/25/13 14/23/13 13/21/13
f 17/26/14 15/24/14 14/22/14
f 15/24/15 16/25/15 13/21/15
f 1/1/16 17/27/16 16/25/16
f 2/3/17 18/28/17 17/26/17
f 3/4/18 16/25/18 18/28/18
f 4/5/1 5/6/1 2/2/1
f 5/7/2 6/8/2 3/4/2
f 6/8/3 4/5/3 1/1/3
f 4/5/4 7/9/4 8/11/4
f 8/10/5 9/12/5 6/8/5
f 9/12/19 7/9/19 4/5/19
f 10/14/20 11/16/20 8/11/20
f 11/17/8 12/19/8 9/12/8
f 12/19/9 10/14/9 7/9/9
f 13/21/10 14/23/10 11/18/10
f 14/22/11 15/24/11 12/20/11
f 12/20/12 15/24/12 13/21/12
f 16/25/21 17/27/21 14/23/21
f 17/26/14 18/28/14 15/24/14
f 15/24/15 18/28/15 16/25/15
f 1/1/16 2/2/16 17/27/16
f 2/3/17 3/4/17 18/28/17
f 3/4/18 1/1/18 16/25/18
