# Blender v3.0.0 OBJ File: ''
# www.blender.org
mtllib box.mtl
o 立方体
v 1.000000 -1.000000 -1.000000
v 1.000000 1.000000 -1.000000
v 1.000000 -1.000000 1.000000
v 1.000000 1.000000 1.000000
v -1.000000 -1.000000 -1.000000
v -1.000000 1.000000 -1.000000
v -1.000000 -1.000000 1.000000
v -1.000000 1.000000 1.000000
vt 0.668869 0.002203
vt 0.997797 0.331131
vt 0.997797 0.002203
vt 0.002203 0.002203
vt 0.331131 0.331131
vt 0.331131 0.002203
vt 0.002203 0.335536
vt 0.331131 0.664464
vt 0.331131 0.335536
vt 0.335536 0.002203
vt 0.664464 0.331131
vt 0.664464 0.002203
vt 0.335536 0.335536
vt 0.664464 0.664464
vt 0.664464 0.335536
vt 0.002203 0.668869
vt 0.331131 0.997797
vt 0.331131 0.668869
vt 0.668869 0.331131
vt 0.002203 0.331131
vt 0.002203 0.664464
vt 0.335536 0.331131
vt 0.335536 0.664464
vt 0.002203 0.997797
vn 1.0000 0.0000 0.0000
vn 0.0000 0.0000 1.0000
vn -1.0000 0.0000 0.0000
vn 0.0000 0.0000 -1.0000
vn 0.0000 -1.0000 0.0000
vn 0.0000 1.0000 0.0000
usemtl マテリアル
s off
f 2/1/1 3/2/1 1/3/1
f 4/4/2 7/5/2 3/6/2
f 8/7/3 5/8/3 7/9/3
f 6/10/4 1/11/4 5/12/4
f 7/13/5 1/14/5 3/15/5
f 4/16/6 6/17/6 8/18/6
f 2/1/1 4/19/1 3/2/1
f 4/4/2 8/20/2 7/5/2
f 8/7/3 6/21/3 5/8/3
f 6/10/4 2/22/4 1/11/4
f 7/13/5 5/23/5 1/14/5
f 4/16/6 2/24/6 6/17/6
